#!OML:ASF I:\salsa\salsa 7_09\Patient 1\Session 1\dancerfemale.ASF
:FULLY-SPECIFIED
:DEGREES
1445
root 21.2173 15.729 -5.49781 -728.383 1029.7 14.4947
lowerback 14.8013 2.28381 -1.64695
upperback -2.95772 1.86429 -7.03358
thorax -11.4465 0.650843 -7.31482
lowerneck 5.26497 -8.26557 -4.29206
upperneck 1.39891 -11.3405 8.61341
head 0.341037 -5.7792 3.60193
rclavicle 1.09829e-014 5.1684e-014
rhumerus -33.7454 32.7176 -98.6164
rradius 78.0704
rwrist -2.34455
rhand 30.7497 -318.424
rfingers 7.12502
rthumb 54.3797 22.9984
lclavicle 1.09829e-014 5.1684e-014
lhumerus -20.6605 -5.27914 98.2672
lradius 91.1463
lwrist -22.6335
lhand -12.3476 33.9673
lfingers 7.12502
lthumb 13.7221 -296.505
rfemur -45.0319 -15.497 12.2151
rtibia 67.74
rfoot -3.06685 -9.84188
rtoes -3.80956
lfemur -5.07953 9.37269 -35.4266
ltibia 26.6981
lfoot -25.5438 13.8968
ltoes -6.38199
1446
root 21.0545 15.7428 -5.44201 -726.532 1027.58 12.5494
lowerback 13.9766 2.55897 -1.0596
upperback -3.25183 2.43394 -6.60825
thorax -11.215 0.912464 -7.26128
lowerneck 4.62577 -7.67051 -3.60601
upperneck 1.88941 -10.5222 8.20035
head 0.485453 -5.34402 3.30131
rclavicle 5.43676e-014 -3.18055e-015
rhumerus -32.1557 33.1353 -98.9785
rradius 78.5324
rwrist -2.41572
rhand 30.4106 -318.701
rfingers 7.12502
rthumb 54.0757 22.5122
lclavicle 5.43676e-014 -3.18055e-015
lhumerus -21.589 -3.30925 96.6853
lradius 87.4506
lwrist -23.3376
lhand -13.7501 33.0586
lfingers 7.12502
lthumb 12.3701 -297.327
rfemur -42.5174 -13.6268 13.6917
rtibia 65.5687
rfoot -5.00414 -6.67195
rtoes -9.38684
lfemur -5.93757 8.97363 -33.8182
ltibia 28.5186
lfoot -26.578 15.6172
ltoes -5.08847
1447
root 20.8797 15.7562 -5.38145 -724.056 1025.55 9.90622
lowerback 13.2221 2.74378 -0.0574285
upperback -3.62001 2.94998 -6.10315
thorax -11.0933 1.12075 -7.34861
lowerneck 4.21651 -7.03647 -3.03111
upperneck 2.30569 -9.65908 7.71072
head 0.574052 -4.89253 3.01338
rclavicle -3.21534e-014 -1.59028e-014
rhumerus -30.7498 33.6135 -99.5841
rradius 79.1179
rwrist -2.79269
rhand 30.4388 -319.303
rfingers 7.12502
rthumb 54.101 21.9273
lclavicle -3.21534e-014 -1.59028e-014
lhumerus -22.8121 -0.951789 94.7977
lradius 83.3552
lwrist -24.111
lhand -15.528 32.0519
lfingers 7.12502
lthumb 10.6555 -298.238
rfemur -39.6183 -11.6487 15.5871
rtibia 62.0635
rfoot -7.7247 -3.91051
rtoes -11.5186
lfemur -7.14524 8.50915 -31.7925
ltibia 31.2602
lfoot -28.2418 16.4742
ltoes -1.569
1448
root 20.6898 15.7263 -5.3252 -721.258 1023.63 6.93223
lowerback 12.5612 2.83772 1.04999
upperback -4.06226 3.34462 -5.56661
thorax -11.1149 1.25646 -7.44358
lowerneck 3.99481 -6.25311 -2.78049
upperneck 2.78187 -8.62014 7.34905
head 0.670823 -4.35977 2.83689
rclavicle -1.75924e-014 2.38542e-014
rhumerus -29.7629 34.2846 -100.535
rradius 79.7756
rwrist -3.18617
rhand 29.9044 -319.899
rfingers 7.12502
rthumb 53.621 21.0103
lclavicle -1.75924e-014 2.38542e-014
lhumerus -24.3492 1.87359 92.5074
lradius 78.7073
lwrist -25.0443
lhand -17.5553 31.0602
lfingers 7.12502
lthumb 8.69954 -299.139
rfemur -36.5254 -9.91019 17.6334
rtibia 58.1391
rfoot -12.2308 -2.39299
rtoes -14.9259
lfemur -8.54185 9.15793 -29.8858
ltibia 34.4081
lfoot -28.3873 18.0055
ltoes -5.00364
1449
root 20.4897 15.727 -5.27212 -717.82 1021.96 3.26698
lowerback 11.9267 3.03706 2.21996
upperback -4.46121 3.8922 -4.92556
thorax -11.0787 1.46685 -7.48123
lowerneck 3.79357 -5.63385 -2.58123
upperneck 3.2249 -7.80147 7.03438
head 0.776358 -3.93891 2.68689
rclavicle -7.90418e-014 6.36111e-015
rhumerus -28.8601 34.5143 -101.333
rradius 80.4157
rwrist -3.35073
rhand 28.6495 -320.06
rfingers 7.12502
rthumb 52.4887 20.1292
lclavicle -7.90418e-014 6.36111e-015
lhumerus -25.6706 4.73935 90.212
lradius 73.3948
lwrist -26.2567
lhand -19.6098 29.9863
lfingers 7.12502
lthumb 6.71649 -300.14
rfemur -32.8974 -8.3997 19.9514
rtibia 53.7652
rfoot -15.7132 -2.40874
rtoes -18.6214
lfemur -10.2114 8.84614 -27.5898
ltibia 38.2482
lfoot -28.9896 19.3362
ltoes -2.89844
1450
root 20.2864 15.7794 -5.21721 -713.982 1020.83 -0.821415
lowerback 11.3703 3.35911 3.43655
upperback -4.78157 4.59991 -4.28335
thorax -10.9671 1.75373 -7.56672
lowerneck 3.62763 -5.31262 -2.24225
upperneck 3.51659 -7.36814 6.73031
head 0.846737 -3.71199 2.51837
rclavicle -7.50661e-014 3.26007e-014
rhumerus -27.8442 34.0636 -101.778
rradius 81.1102
rwrist -3.38111
rhand 27.4134 -320.112
rfingers 7.12502
rthumb 51.3672 19.414
lclavicle -7.50661e-014 3.26007e-014
lhumerus -26.691 7.49803 88.0219
lradius 67.4756
lwrist -27.7876
lhand -20.869 27.0685
lfingers 7.12502
lthumb 5.50081 -303.023
rfemur -30.1083 -7.60657 22.5291
rtibia 49.7371
rfoot -17.999 -1.46288
rtoes -16.9388
lfemur -12.3924 8.4627 -25.4232
ltibia 42.7943
lfoot -27.769 22.2073
ltoes -4.55206
1451
root 20.0876 15.8102 -5.17369 -710.492 1020.22 -4.45665
lowerback 10.9615 3.81076 4.29809
upperback -5.10653 5.40364 -3.73353
thorax -10.9455 2.10051 -7.57386
lowerneck 3.58732 -5.21142 -1.8141
upperneck 3.74436 -7.22589 6.48239
head 0.89082 -3.63263 2.35714
rclavicle -3.96948e-014 2.46493e-014
rhumerus -26.8528 33.1896 -101.879
rradius 81.804
rwrist -3.66169
rhand 26.3249 -320.182
rfingers 7.12502
rthumb 50.3747 18.7946
lclavicle -3.96948e-014 2.46493e-014
lhumerus -27.6938 10.0457 85.8857
lradius 61.2206
lwrist -29.5627
lhand -23.4871 28.5504
lfingers 7.12502
lthumb 2.97273 -301.491
rfemur -27.5855 -7.3124 24.8147
rtibia 46.1767
rfoot -19.1284 -0.466587
rtoes -14.1209
lfemur -15.2278 7.16422 -23.7192
ltibia 48.3274
lfoot -25.3706 25.4043
ltoes -3.31544
1452
root 19.8908 15.8207 -5.14606 -707.238 1019.94 -7.70862
lowerback 10.7334 4.17233 4.95359
upperback -5.42415 6.04417 -3.26591
thorax -11.0558 2.36952 -7.53795
lowerneck 3.02828 -5.0658 -1.50972
upperneck 4.34434 -7.05524 6.34999
head 1.15086 -3.52478 2.23721
rclavicle -8.07563e-016 2.46493e-014
rhumerus -25.6852 32.6652 -101.954
rradius 82.1911
rwrist -4.20695
rhand 25.1589 -320.16
rfingers 7.12502
rthumb 49.307 18.261
lclavicle -8.07563e-016 2.46493e-014
lhumerus -28.6882 13.0415 83.2952
lradius 54.9124
lwrist -31.5665
lhand -24.7288 27.9222
lfingers 7.12502
lthumb 1.77346 -302.105
rfemur -25.5226 -6.74704 26.8251
rtibia 43.3104
rfoot -20.2907 0.119909
rtoes -11.2751
lfemur -19.366 8.11305 -21.7336
ltibia 54.7839
lfoot -20.4161 26.0821
ltoes -1.86873
1453
root 19.6986 15.7783 -5.12811 -703.493 1020 -11.5581
lowerback 10.5609 4.51747 5.83544
upperback -5.72232 6.71451 -2.66514
thorax -11.1642 2.63997 -7.48629
lowerneck 2.44262 -5.06109 -0.81129
upperneck 4.81825 -7.03661 5.66106
head 1.34256 -3.49134 1.87046
rclavicle 3.70485e-014 -7.95139e-016
rhumerus -24.6595 32.3173 -101.884
rradius 82.899
rwrist -4.64364
rhand 24.2598 -320.233
rfingers 7.12502
rthumb 48.4807 17.782
lclavicle 3.70485e-014 -7.95139e-016
lhumerus -30.0149 16.2773 80.4164
lradius 49.0691
lwrist -33.8436
lhand -25.1132 28.0071
lfingers 7.12502
lthumb 1.40228 -302.018
rfemur -23.8623 -5.76383 29.0841
rtibia 41.2216
rfoot -20.9518 0.347026
rtoes -13.0408
lfemur -24.251 8.73349 -19.4622
ltibia 61.8742
lfoot -14.3761 26.7765
ltoes 3.97145
1454
root 19.5067 15.7075 -5.09973 -699.377 1020.48 -16.0015
lowerback 10.4851 4.46649 7.23653
upperback -5.86824 6.96275 -1.77293
thorax -11.2094 2.68488 -7.32871
lowerneck 2.03287 -4.56043 -0.959792
upperneck 4.75007 -6.35742 5.52785
head 1.36579 -3.14879 1.85057
rclavicle -6.78228e-014 -1.19271e-014
rhumerus -23.8951 33.2968 -101.876
rradius 84.5548
rwrist -5.09346
rhand 23.7884 -320.824
rfingers 7.12502
rthumb 48.0465 16.9847
lclavicle -6.78228e-014 -1.19271e-014
lhumerus -32.0451 20.6342 76.7143
lradius 44.1646
lwrist -36.0844
lhand -24.2281 27.3085
lfingers 7.12502
lthumb 2.25702 -302.724
rfemur -22.1348 -4.9667 31.6571
rtibia 39.4256
rfoot -22.6997 0.652079
rtoes -10.7681
lfemur -29.2964 9.54907 -16.7312
ltibia 68.8179
lfoot -8.575 27.7076
ltoes 15.1851
